<svg xmlns="http://www.w3.org/2000/svg" viewBox="0 0 48 48" fill="none">
  <rect width="48" height="48" rx="10" fill="#f0fdf4"/>
  <path d="M8 14a4 4 0 0 1 4-4h18a4 4 0 0 1 4 4v10a4 4 0 0 1-4 4H20l-6 4v-4h-2a4 4 0 0 1-4-4V14z" fill="#16a34a" opacity=".85"/>
  <path d="M26 26h4a4 4 0 0 1 4 4v6a4 4 0 0 1-4 4h-1v3l-4-3h-5a4 4 0 0 1-4-4v-2" stroke="#16a34a" stroke-width="2" fill="none"/>
  <rect x="13" y="17" width="4" height="2" rx="1" fill="#fff"/>
  <rect x="19" y="17" width="6" height="2" rx="1" fill="#fff"/>
  <rect x="13" y="21" width="9" height="2" rx="1" fill="#fff"/>
</svg>
